<svg width="30" height="30" viewBox="0 0 30 30" fill="none" xmlns="http://www.w3.org/2000/svg">
<circle cx="15" cy="15" r="14" stroke="#FEF223" stroke-width="2"/>
<path d="M5.57558 16.4048C5.57558 16.2926 5.56211 16.1924 5.53519 16.1042C5.51033 16.0134 5.46373 15.9319 5.39538 15.8597C5.3291 15.7849 5.23486 15.7128 5.11266 15.6433C4.99253 15.5711 4.83718 15.4963 4.64663 15.4188C4.43536 15.3333 4.2386 15.2371 4.05633 15.1303C3.87406 15.0234 3.71354 14.8991 3.57477 14.7575C3.43807 14.6159 3.3314 14.4529 3.25476 14.2685C3.17813 14.0815 3.13981 13.8651 3.13981 13.6192C3.13981 13.3788 3.17916 13.1597 3.25787 12.9619C3.33865 12.7642 3.45256 12.5945 3.59962 12.4529C3.74668 12.3086 3.91963 12.1977 4.11847 12.1202C4.31938 12.0428 4.541 12.004 4.78333 12.004C5.11887 12.004 5.40884 12.0828 5.65325 12.2405C5.89973 12.3981 6.09028 12.6119 6.22491 12.8818C6.35954 13.1516 6.42685 13.4549 6.42685 13.7916H5.57558C5.57558 13.6099 5.54554 13.4496 5.48548 13.3106C5.42748 13.1717 5.33842 13.0621 5.21829 12.982C5.10023 12.9018 4.9511 12.8617 4.7709 12.8617C4.59692 12.8617 4.45193 12.8951 4.33594 12.9619C4.22203 13.0287 4.13607 13.1196 4.07808 13.2345C4.02215 13.3494 3.99419 13.4776 3.99419 13.6192C3.99419 13.7261 4.01387 13.8223 4.05322 13.9078C4.09258 13.9906 4.15161 14.0695 4.23031 14.1443C4.30902 14.2164 4.40637 14.2846 4.52236 14.3487C4.64042 14.4102 4.77712 14.4716 4.93246 14.5331C5.18101 14.6293 5.39849 14.7361 5.5849 14.8537C5.77338 14.9713 5.92976 15.1049 6.05403 15.2545C6.18038 15.4041 6.27462 15.5725 6.33676 15.7595C6.40096 15.9466 6.43307 16.159 6.43307 16.3968C6.43307 16.648 6.39475 16.8724 6.31811 17.0701C6.24148 17.2679 6.1317 17.4362 5.98879 17.5752C5.84587 17.7141 5.67396 17.8196 5.47305 17.8918C5.27421 17.9639 5.05156 18 4.80508 18C4.58553 18 4.36805 17.9626 4.15264 17.8878C3.9393 17.8103 3.74564 17.6954 3.57166 17.5431C3.39768 17.3881 3.2589 17.1931 3.15534 16.9579C3.05178 16.7201 3 16.4422 3 16.1242H3.85749C3.85749 16.3086 3.88027 16.4663 3.92584 16.5972C3.97348 16.7255 4.03976 16.831 4.12468 16.9138C4.21167 16.994 4.31316 17.0528 4.42915 17.0902C4.54514 17.1276 4.67045 17.1463 4.80508 17.1463C4.97906 17.1463 5.12198 17.1156 5.23382 17.0541C5.34774 16.99 5.43266 16.9018 5.48859 16.7896C5.54658 16.6774 5.57558 16.5491 5.57558 16.4048Z" fill="#FEF223"/>
<path d="M9.73875 16H10.5931C10.5704 16.3901 10.4865 16.7361 10.3415 17.0381C10.1965 17.3373 9.99455 17.5725 9.73565 17.7435C9.47674 17.9145 9.16295 18 8.79427 18C8.51051 18 8.25472 17.9359 8.02688 17.8076C7.80112 17.6767 7.60746 17.491 7.4459 17.2505C7.28642 17.0073 7.16421 16.7161 7.07929 16.3768C6.99437 16.0347 6.95191 15.6513 6.95191 15.2265V14.7816C6.95191 14.3567 6.99541 13.9733 7.0824 13.6313C7.16939 13.2892 7.29366 12.998 7.45522 12.7575C7.61885 12.5144 7.81458 12.3273 8.04242 12.1964C8.27232 12.0655 8.52915 12 8.81291 12C9.18159 12 9.49331 12.0882 9.74808 12.2645C10.0028 12.4382 10.2006 12.6774 10.3415 12.982C10.4823 13.2866 10.5672 13.6366 10.5962 14.0321H9.74186C9.72529 13.7862 9.68387 13.5778 9.61759 13.4068C9.55338 13.2358 9.45603 13.1062 9.32554 13.018C9.19713 12.9272 9.02625 12.8818 8.81291 12.8818C8.64721 12.8818 8.50119 12.9218 8.37485 13.002C8.25057 13.0822 8.14701 13.2024 8.06416 13.3627C7.98131 13.5204 7.91918 13.7181 7.87775 13.9559C7.83633 14.191 7.81562 14.4636 7.81562 14.7735V15.2265C7.81562 15.523 7.83426 15.7889 7.87154 16.024C7.90882 16.2592 7.96682 16.4583 8.04552 16.6212C8.12423 16.7842 8.22572 16.9085 8.34999 16.994C8.47427 17.0795 8.62236 17.1222 8.79427 17.1222C9.00347 17.1222 9.17331 17.0795 9.3038 16.994C9.43635 16.9085 9.53681 16.7829 9.60516 16.6172C9.67558 16.4516 9.72011 16.2458 9.73875 16Z" fill="#FEF223"/>
<path d="M11.2549 12.0842H12.8984C13.2422 12.0842 13.5374 12.151 13.7839 12.2846C14.0303 12.4182 14.2199 12.6159 14.3524 12.8778C14.485 13.1396 14.5513 13.4616 14.5513 13.8437C14.5513 14.1456 14.5098 14.4075 14.427 14.6293C14.3441 14.851 14.2271 15.0367 14.0759 15.1864C13.9268 15.336 13.7507 15.4536 13.5478 15.5391L13.2806 15.7154H11.8297L11.8235 14.8457H12.9077C13.0838 14.8457 13.2298 14.8056 13.3458 14.7255C13.4618 14.6453 13.5488 14.5344 13.6068 14.3928C13.6668 14.2512 13.6969 14.0895 13.6969 13.9078C13.6969 13.7128 13.6679 13.5444 13.6099 13.4028C13.5519 13.2585 13.4639 13.1476 13.3458 13.0701C13.2277 12.9927 13.0786 12.9539 12.8984 12.9539H12.1093V17.9198H11.2549V12.0842ZM13.8087 17.9198L12.7617 15.3066L13.6658 15.3026L14.7252 17.8637V17.9198H13.8087Z" fill="#FEF223"/>
<path d="M18.963 14.8537V15.1543C18.963 15.5952 18.9174 15.992 18.8263 16.3447C18.7352 16.6947 18.6057 16.9927 18.4379 17.2385C18.2702 17.4843 18.0703 17.6727 17.8383 17.8036C17.6063 17.9345 17.3485 18 17.0647 18C16.7851 18 16.5283 17.9345 16.2942 17.8036C16.0622 17.6727 15.8613 17.4843 15.6915 17.2385C15.5216 16.9927 15.3901 16.6947 15.2969 16.3447C15.2037 15.992 15.1571 15.5952 15.1571 15.1543V14.8537C15.1571 14.4102 15.2037 14.0134 15.2969 13.6633C15.3901 13.3133 15.5206 13.0154 15.6884 12.7695C15.8561 12.521 16.056 12.3313 16.288 12.2004C16.522 12.0695 16.7789 12.004 17.0585 12.004C17.3422 12.004 17.6001 12.0695 17.8321 12.2004C18.0641 12.3313 18.2639 12.521 18.4317 12.7695C18.6016 13.0154 18.732 13.3133 18.8232 13.6633C18.9164 14.0134 18.963 14.4102 18.963 14.8537ZM18.0993 15.1543V14.8457C18.0993 14.5277 18.0765 14.2485 18.0309 14.008C17.9854 13.7649 17.9181 13.5605 17.829 13.3948C17.7399 13.2291 17.6301 13.1049 17.4997 13.022C17.3692 12.9365 17.2221 12.8938 17.0585 12.8938C16.8928 12.8938 16.7457 12.9365 16.6173 13.022C16.491 13.1049 16.3833 13.2291 16.2942 13.3948C16.2051 13.5605 16.1368 13.7649 16.0892 14.008C16.0436 14.2485 16.0208 14.5277 16.0208 14.8457V15.1543C16.0208 15.4696 16.0436 15.7488 16.0892 15.992C16.1368 16.2351 16.2051 16.4409 16.2942 16.6092C16.3853 16.7749 16.4951 16.9005 16.6235 16.986C16.7519 17.0715 16.899 17.1142 17.0647 17.1142C17.2304 17.1142 17.3775 17.0715 17.5059 16.986C17.6343 16.9005 17.742 16.7749 17.829 16.6092C17.9181 16.4409 17.9854 16.2351 18.0309 15.992C18.0765 15.7488 18.0993 15.4696 18.0993 15.1543Z" fill="#FEF223"/>
<path d="M22.5576 17.0541V17.9198H20.2834V17.0541H22.5576ZM20.5413 12.0842V17.9198H19.6869V12.0842H20.5413Z" fill="#FEF223"/>
<path d="M26 17.0541V17.9198H23.7258V17.0541H26ZM23.9837 12.0842V17.9198H23.1293V12.0842H23.9837Z" fill="#FEF223"/>
</svg>
